<?xml version="1.0" encoding="UTF-8"?>
<svg width="700pt" height="700pt" version="1.1" viewBox="0 0 700 700" xmlns="http://www.w3.org/2000/svg">
  <path d="m518 339.38h-131.02c-11.879 0-23.273 4.7188-31.676 13.121-8.4023 8.4023-13.121 19.797-13.121 31.68v63.816c0 11.883 4.7188 23.277 13.121 31.68 8.4023 8.3984 19.797 13.121 31.676 13.121h131.02c11.883 0 23.277-4.7227 31.68-13.121 8.3984-8.4023 13.121-19.797 13.121-31.68v-63.816c0-11.883-4.7227-23.277-13.121-31.68-8.4023-8.4023-19.797-13.121-31.68-13.121zm22.398 108.62c0 5.9414-2.3594 11.637-6.5586 15.84-4.2031 4.1992-9.8984 6.5586-15.84 6.5586h-131.02c-5.9375 0-11.637-2.3594-15.836-6.5586-4.2031-4.2031-6.5625-9.8984-6.5625-15.84v-63.816c0-5.9414 2.3594-11.641 6.5625-15.84 4.1992-4.2031 9.8984-6.5625 15.836-6.5625h131.02c5.9414 0 11.637 2.3594 15.84 6.5625 4.1992 4.1992 6.5586 9.8984 6.5586 15.84zm-272.18-198.22h-86.219c-11.883 0-23.277 4.7227-31.68 13.121-8.3984 8.4023-13.121 19.797-13.121 31.68v153.42c0 11.883 4.7227 23.277 13.121 31.68 8.4023 8.3984 19.797 13.121 31.68 13.121h86.219c11.879 0 23.277-4.7227 31.676-13.121 8.4023-8.4023 13.125-19.797 13.125-31.68v-153.42c0-11.883-4.7227-23.277-13.125-31.68-8.3984-8.3984-19.797-13.121-31.676-13.121zm22.398 198.22c0 5.9414-2.3594 11.637-6.5586 15.84-4.2031 4.1992-9.8984 6.5586-15.84 6.5586h-86.219c-5.9414 0-11.637-2.3594-15.84-6.5586-4.1992-4.2031-6.5586-9.8984-6.5586-15.84v-153.42c0-5.9414 2.3594-11.637 6.5586-15.84 4.2031-4.1992 9.8984-6.5586 15.84-6.5586h86.219c5.9414 0 11.637 2.3594 15.84 6.5586 4.1992 4.2031 6.5586 9.8984 6.5586 15.84zm227.38-380.8h-131.02c-11.879 0-23.273 4.7227-31.676 13.121-8.4023 8.4023-13.121 19.797-13.121 31.68v153.42c0 11.883 4.7188 23.277 13.121 31.68 8.4023 8.3984 19.797 13.121 31.676 13.121h131.02c11.883 0 23.277-4.7227 31.68-13.121 8.3984-8.4023 13.121-19.797 13.121-31.68v-153.42c0-11.883-4.7227-23.277-13.121-31.68-8.4023-8.3984-19.797-13.121-31.68-13.121zm22.398 198.22c0 5.9414-2.3594 11.637-6.5586 15.84-4.2031 4.1992-9.8984 6.5586-15.84 6.5586h-131.02c-5.9375 0-11.637-2.3594-15.836-6.5586-4.2031-4.2031-6.5625-9.8984-6.5625-15.84v-153.42c0-5.9414 2.3594-11.637 6.5625-15.84 4.1992-4.1992 9.8984-6.5586 15.836-6.5586h131.02c5.9414 0 11.637 2.3594 15.84 6.5586 4.1992 4.2031 6.5586 9.8984 6.5586 15.84zm-272.18-198.22h-86.219c-11.883 0-23.277 4.7227-31.68 13.121-8.3984 8.4023-13.121 19.797-13.121 31.68v63.816c0 11.883 4.7227 23.277 13.121 31.68 8.4023 8.4023 19.797 13.121 31.68 13.121h86.219c11.879 0 23.277-4.7188 31.676-13.121 8.4023-8.4023 13.125-19.797 13.125-31.68v-63.816c0-11.883-4.7227-23.277-13.125-31.68-8.3984-8.3984-19.797-13.121-31.676-13.121zm22.398 108.62c0 5.9414-2.3594 11.641-6.5586 15.84-4.2031 4.2031-9.8984 6.5625-15.84 6.5625h-86.219c-5.9414 0-11.637-2.3594-15.84-6.5625-4.1992-4.1992-6.5586-9.8984-6.5586-15.84v-63.816c0-5.9414 2.3594-11.637 6.5586-15.84 4.2031-4.1992 9.8984-6.5586 15.84-6.5586h86.219c5.9414 0 11.637 2.3594 15.84 6.5586 4.1992 4.2031 6.5586 9.8984 6.5586 15.84z"/>
</svg>
