<svg width="24" height="24" viewBox="0 0 24 24" fill="none" xmlns="http://www.w3.org/2000/svg">
<path d="M15 12C15 10.34 13.66 9 12 9C10.34 9 9 10.34 9 12C9 13.66 10.34 15 12 15C12.41 15 12.81 14.92 13.17 14.76" stroke="#292D32" stroke-width="1.5" stroke-miterlimit="10" stroke-linecap="round" stroke-linejoin="round"/>
<path d="M6.88 20.5801L7.97 21.2101C8.76 21.6801 9.78 21.4001 10.25 20.6101L10.36 20.4201C11.26 18.8501 12.74 18.8501 13.65 20.4201L13.76 20.6101C14.23 21.4001 15.25 21.6801 16.04 21.2101L17.77 20.2201C18.68 19.7001 18.99 18.5301 18.47 17.6301C17.56 16.0601 18.3 14.7801 20.11 14.7801C21.15 14.7801 22.01 13.9301 22.01 12.8801V11.1201C22.01 10.0801 21.16 9.22007 20.11 9.22007C19.1 9.22007 18.42 8.82007 18.18 8.19007C17.99 7.70007 18.07 7.06007 18.47 6.37007C18.99 5.46007 18.68 4.30007 17.77 3.78007L16.96 3.32007" stroke="#292D32" stroke-width="1.5" stroke-miterlimit="10" stroke-linecap="round" stroke-linejoin="round"/>
<path d="M13.64 3.57994C12.74 5.14994 11.26 5.14994 10.35 3.57994L10.24 3.38994C9.78 2.59994 8.76 2.31994 7.97 2.78994L6.24 3.77994C5.33 4.29994 5.02 5.46994 5.54 6.37994C6.45 7.93994 5.71 9.21994 3.9 9.21994C2.86 9.21994 2 10.0699 2 11.1199V12.8799C2 13.9199 2.85 14.7799 3.9 14.7799C5.71 14.7799 6.45 16.0599 5.54 17.6299" stroke="#292D32" stroke-width="1.5" stroke-miterlimit="10" stroke-linecap="round" stroke-linejoin="round"/>
</svg>
